 http://img687.imageshack.us/img687/5642/posterdik.jpg


[i][b]Genre: Action | Adventure | Drama | Thriller | Western
Language: English
Encoded By: D34dLy
IMDB: [url]http://www.imdb.com/title/tt1037705/[/url]

Cast:
Denzel Washington ... Eli
Gary Oldman ... Carnegie
Mila Kunis ... Solara
Ray Stevenson ... Redridge
Jennifer Beals ... Claudia
Evan Jones ... Martz
Joe Pingue ... Hoyt
Frances de la Tour ... Martha
Michael Gambon ... George
Tom Waits ... Engineer
Chris Browning ... Hijack Leader
Richard Cetrone ... Hijacker
Lateef Crowder ... Highjacker / Construction Thug
Keith Davis ... Hijacker
Don Tai ... Hijacker (as Don Theerathada)


Plot:
Thirty years after an apocalyptic event, Eli (Denzel Washington) travels on foot toward the west coast of the United States. Along the way he demonstrates atypical but effective survival and fighting skills, hunting strange wildlife and swiftly defeating a group of highway bandits who try to ambush him. Searching for a source of water he arrives in a ramshackle town which was built by and is overseen by Carnegie (Gary Oldman). Carnegie dreams of building more towns and hinges these hopes on finding a certain book. His henchmen scour the desolate landscape daily in search of it.



General Info:
Complete name : The.Book.Of.Eli.2010.BDRip.H264.AAC-D34dLy.mp4
Format : MPEG-4
Format profile : Base Media
Codec ID : isom
File size : 351 MiB
Duration : 1h 55mn
Overall bit rate : 423 Kbps
Encoded date : UTC 2010-05-21 19:31:32
Tagged date : UTC 2010-05-21 19:31:32

Video Info:
ID : 1
Format : AVC
Format/Info : Advanced Video Codec
Format profile : High@L4.1
Format settings, CABAC : Yes
Format settings, ReFrames : 3 frames
Codec ID : avc1
Codec ID/Info : Advanced Video Coding
Duration : 1h 55mn
Bit rate mode : Variable
Bit rate : 358 Kbps
Maximum bit rate : 4 337 Kbps
Width : 640 pixels
Height : 272 pixels
Display aspect ratio : 2.35:1
Frame rate mode : Constant
Frame rate : 23.976 fps
Resolution : 8 bits
Colorimetry : 4:2:0
Scan type : Progressive
Bits/(Pixel*Frame) : 0.086
Stream size : 296 MiB (84%)
Title : Imported with GPAC 0.4.6-DEV (build 1)
Writing library : x264 core 80 r1376M 3feaec2
Encoding settings : cabac=1 / ref=3 / deblock=1:-2:-1 / analyse=0x3:0x113 / me=umh / subme=5 / psy=1 / psy_rd=0.0:0.0 / mixed_ref=1 / me_range=12 / chroma_me=1 / trellis=1 / 8x8dct=1 / cqm=0 / deadzone=21,11 / fast_pskip=1 / chroma_qp_offset=0 / threads=3 / sliced_threads=0 / nr=0 / decimate=1 / mbaff=0 / constrained_intra=0 / bframes=16 / b_pyramid=0 / b_adapt=1 / b_bias=0 / direct=3 / wpredb=1 / wpredp=2 / keyint=250 / keyint_min=25 / scenecut=40 / rc_lookahead=40 / rc=2pass / mbtree=1 / bitrate=358 / ratetol=1.0 / qcomp=0.60 / qpmin=10 / qpmax=51 / qpstep=4 / cplxblur=20.0 / qblur=0.5 / ip_ratio=1.40 / aq=2:1.00
Encoded date : UTC 2010-05-21 19:31:32
Tagged date : UTC 2010-05-21 19:32:30

Audio Info:
ID : 2
Format : AAC
Format/Info : Advanced Audio Codec
Format version : Version 4
Format profile : LC
Format settings, SBR : Yes
Format settings, PS : No
Codec ID : 40
Duration : 1h 55mn
Bit rate mode : Variable
Bit rate : 64.0 Kbps
Maximum bit rate : 85.6 Kbps
Channel(s) : 2 channels
Channel positions : Front: L R
Sampling rate : 44.1 KHz
Stream size : 53.0 MiB (15%)
Encoded date : UTC 2010-05-21 19:32:25
Tagged date : UTC 2010-05-21 19:32:30


Screenshots:[/i][/b]
 
http://img534.imageshack.us/img534/3103/40809137.jpg 
http://img99.imageshack.us/img99/2346/51988298.jpg 
http://img132.imageshack.us/img132/7721/aaabi.jpg 
http://img413.imageshack.us/img413/3466/aaaaym.jpg 
http://img180.imageshack.us/img180/1076/aaaaakj.jpg 
http://img42.imageshack.us/img42/8052/thebookofeli2010bdriph2.jpg

